<?xml version="1.0" standalone="no"?>
<!DOCTYPE svg PUBLIC "-//W3C//DTD SVG 20010904//EN"
 "http://www.w3.org/TR/2001/REC-SVG-20010904/DTD/svg10.dtd">
<svg version="1.0" xmlns="http://www.w3.org/2000/svg"
 width="600.000000pt" height="600.000000pt" viewBox="0 0 600.000000 600.000000"
 preserveAspectRatio="xMidYMid meet">

<g transform="translate(0.000000,600.000000) scale(0.100000,-0.100000)"
fill="#000000" stroke="none">
<path d="M0 3000 l0 -3000 1724 0 c948 0 1738 3 1756 6 22 5 28 9 18 15 -9 6
-5 9 12 9 20 0 22 2 10 10 -12 8 -10 10 10 10 20 0 22 2 10 10 -11 7 -6 10 20
11 32 1 33 2 10 9 l-25 8 25 1 c20 1 22 3 10 11 -12 8 -10 10 10 10 20 0 22 2
10 10 -12 8 -10 10 10 10 20 0 22 2 10 10 -11 7 -6 10 20 11 32 1 33 2 10 9
l-25 8 25 1 c20 1 22 3 10 11 -12 8 -10 10 10 10 20 0 22 2 10 10 -12 8 -10
10 10 10 20 0 22 2 10 10 -11 7 -6 10 20 11 32 1 33 2 10 9 l-25 8 25 1 c20 1
22 3 10 11 -12 8 -10 10 10 10 20 0 22 2 10 10 -12 8 -10 10 10 10 20 0 22 2
10 10 -11 7 -6 10 20 11 32 1 33 2 10 9 l-25 8 25 1 c20 1 22 3 10 11 -12 8
-10 10 10 10 20 0 22 2 10 10 -12 8 -10 10 10 10 20 0 22 2 10 10 -11 7 -6 10
20 11 32 1 33 2 10 9 l-25 8 25 1 c20 1 22 3 10 11 -12 8 -10 10 10 10 20 0
22 2 10 10 -12 8 -10 10 10 10 20 0 22 2 10 10 -11 7 -6 10 20 11 32 1 33 2
10 9 l-25 8 25 1 c20 1 22 3 10 11 -12 8 -10 10 10 10 20 0 22 2 10 10 -12 8
-10 10 10 10 20 0 22 2 10 10 -11 7 -6 10 20 11 32 1 33 2 10 9 l-25 8 25 1
c20 1 22 3 10 11 -12 8 -10 10 10 10 20 0 22 2 10 10 -12 8 -10 10 10 10 20 0
22 2 10 10 -11 7 -6 10 20 11 32 1 33 2 10 9 l-25 8 25 1 c20 1 22 3 10 11
-12 8 -10 10 10 10 20 0 22 2 10 10 -12 8 -10 10 10 10 20 0 22 2 10 10 -11 7
-6 10 20 11 32 1 33 2 10 9 l-25 8 25 1 c20 1 22 3 10 11 -12 8 -10 10 10 10
20 0 22 2 10 10 -12 8 -10 10 10 10 20 0 22 2 10 10 -11 7 -6 10 20 11 32 1
33 2 10 9 l-25 8 25 1 c20 1 22 3 10 11 -12 8 -10 10 10 10 20 0 22 2 10 10
-12 8 -10 10 10 10 20 0 22 2 10 10 -11 7 -6 10 20 11 32 1 33 2 10 9 l-25 8
25 1 c20 1 22 3 10 11 -12 8 -10 10 10 10 20 0 22 2 10 10 -12 8 -10 10 10 10
20 0 22 2 10 10 -11 7 -6 10 20 11 32 1 33 2 10 9 l-25 8 25 1 c20 1 22 3 10
11 -12 8 -10 10 10 10 20 0 22 2 10 10 -12 8 -10 10 10 10 20 0 22 2 10 10
-10 6 51 10 183 10 259 0 268 4 283 142 11 98 15 104 45 71 14 -15 36 -54 49
-86 26 -65 63 -102 121 -117 25 -7 109 -10 211 -8 l170 3 24 28 c15 17 24 41
24 60 0 18 -49 150 -113 302 l-113 271 139 174 c76 96 149 189 162 205 14 17
30 45 36 63 6 17 16 32 22 33 7 0 3 4 -8 9 -17 7 -16 9 10 10 l30 2 -29 7
c-36 8 -47 31 -14 32 23 1 23 1 -2 9 l-25 8 25 1 c20 1 22 3 10 11 -12 8 -10
10 10 10 20 0 22 2 10 10 -12 8 -10 10 10 10 20 0 22 2 10 10 -11 7 -6 10 20
11 32 1 33 2 10 9 l-25 8 25 1 c20 1 22 3 10 11 -12 8 -10 10 10 10 20 0 22 2
10 10 -12 8 -10 10 10 10 20 0 22 2 10 10 -11 7 -6 10 20 11 32 1 33 2 10 9
l-25 8 25 1 c20 1 22 3 10 11 -12 8 -10 10 10 10 20 0 22 2 10 10 -12 8 -10
10 10 10 20 0 22 2 10 10 -11 7 -6 10 20 11 32 1 33 2 10 9 l-25 8 25 1 c20 1
22 3 10 11 -13 8 -12 10 2 10 17 0 18 94 18 1745 l0 1745 -3000 0 -3000 0 0
-3000z m1430 1633 c0 -21 -57 -494 -65 -540 l-6 -33 54 0 c39 0 61 6 80 20 14
11 107 134 206 274 100 140 194 262 209 272 23 16 52 19 201 22 100 2 172 0
170 -5 -12 -30 -470 -611 -500 -635 l-38 -31 44 -41 c40 -37 61 -78 200 -384
85 -189 155 -345 155 -348 0 -2 -71 -4 -157 -4 -229 0 -201 -25 -350 310 -81
184 -130 281 -146 293 -32 24 -144 36 -152 16 -3 -8 -22 -149 -42 -314 l-38
-300 -157 -3 c-94 -1 -158 1 -158 7 0 5 25 209 55 453 30 244 68 560 86 703
17 143 33 266 35 273 2 9 43 12 159 12 141 0 155 -2 155 -17z m1653 -410 c38
-8 70 -20 73 -27 3 -7 -22 -229 -56 -493 -33 -265 -60 -486 -60 -492 0 -15
-167 -14 -209 0 -40 14 -51 35 -51 98 0 28 -3 51 -8 51 -4 0 -31 -24 -59 -53
-74 -75 -140 -109 -223 -115 -131 -9 -234 55 -281 176 -30 76 -37 237 -16 339
59 277 295 498 572 533 79 11 232 2 318 -17z m471 1 c9 -4 21 -15 27 -25 5
-11 34 -141 64 -291 30 -149 57 -273 59 -276 7 -6 26 34 141 303 66 155 116
259 131 273 23 21 34 22 160 22 75 0 134 -4 132 -8 -5 -14 -496 -969 -589
-1147 -49 -94 -99 -177 -112 -185 -23 -15 -277 -29 -277 -15 0 4 52 99 115
212 l116 205 -126 460 c-69 253 -125 464 -125 469 0 10 259 13 284 3z m1386
-1445 c0 -15 -88 -746 -96 -791 -5 -35 -4 -38 18 -38 44 1 70 27 187 186 65
89 130 166 148 176 27 16 51 18 176 16 l145 -3 -149 -190 c-82 -104 -165 -204
-186 -222 -35 -30 -36 -33 -21 -50 27 -30 66 -119 245 -550 4 -10 -29 -13
-146 -13 -145 0 -153 1 -175 23 -13 13 -57 110 -100 220 -81 205 -92 221 -144
215 l-27 -3 -27 -215 c-14 -118 -27 -221 -27 -227 -1 -10 -38 -13 -151 -13
l-151 0 6 33 c3 17 17 129 31 247 14 118 42 355 64 525 21 171 49 394 61 498
l22 187 149 0 c98 0 148 -4 148 -11z m-2950 -53 c0 -27 -18 -168 -25 -203 -5
-23 -7 -23 -185 -23 -98 0 -181 -4 -184 -9 -3 -4 -38 -274 -78 -600 l-73 -591
-157 0 c-93 0 -158 4 -158 9 0 10 57 476 110 906 17 132 30 250 30 262 0 22
-1 23 -182 25 l-183 3 14 123 14 122 528 0 529 0 0 -24z m1398 -401 c37 -9 73
-19 80 -24 11 -6 2 -100 -47 -491 -34 -265 -61 -489 -61 -497 0 -12 -19 -14
-111 -11 -102 3 -112 5 -130 27 -13 16 -19 39 -19 77 0 30 -3 54 -6 54 -3 0
-32 -26 -63 -57 -119 -119 -261 -149 -384 -81 -164 91 -197 402 -70 658 53
106 179 232 285 285 121 59 184 73 331 74 82 1 152 -5 195 -14z m902 -17 c56
-26 130 -87 130 -107 0 -11 -82 -107 -109 -128 -24 -18 -45 -16 -97 12 -131
70 -259 -5 -320 -185 -28 -81 -27 -250 2 -304 32 -62 65 -81 138 -81 56 0 69
4 119 38 80 53 107 50 168 -15 27 -29 49 -56 49 -60 0 -10 -100 -98 -142 -124
-131 -83 -359 -89 -485 -13 -74 45 -140 147 -163 250 -21 93 -9 268 25 359 57
153 165 280 289 339 89 43 127 50 241 48 84 -2 109 -7 155 -29z m-2139 -7 c27
-27 29 -35 29 -100 0 -39 3 -71 8 -71 4 0 20 20 35 45 34 54 109 121 156 141
38 16 118 18 140 5 13 -8 12 -27 -9 -135 -13 -69 -27 -130 -30 -136 -5 -8 -15
-8 -34 0 -66 25 -154 -4 -201 -66 -68 -90 -91 -176 -126 -481 l-23 -203 -148
0 c-82 0 -148 4 -148 9 0 5 7 62 15 128 8 65 31 249 50 408 19 160 40 334 47
388 l12 97 99 0 c96 0 99 -1 128 -29z"/>
<path d="M2711 4018 c-136 -52 -231 -221 -230 -408 0 -121 35 -180 107 -180
40 0 50 5 84 41 76 80 122 198 149 384 27 187 27 185 -18 184 -21 0 -62 -9
-92 -21z"/>
<path d="M3052 2125 c-149 -46 -251 -214 -252 -414 0 -83 17 -136 53 -167 36
-30 64 -30 108 -1 84 56 151 208 179 406 27 190 27 191 -12 190 -18 0 -52 -6
-76 -14z"/>
<path d="M5968 2433 c6 -2 18 -2 25 0 6 3 1 5 -13 5 -14 0 -19 -2 -12 -5z"/>
<path d="M5968 2413 c7 -3 16 -2 19 1 4 3 -2 6 -13 5 -11 0 -14 -3 -6 -6z"/>
<path d="M5933 2393 c9 -2 23 -2 30 0 6 3 -1 5 -18 5 -16 0 -22 -2 -12 -5z"/>
<path d="M5928 2373 c7 -3 16 -2 19 1 4 3 -2 6 -13 5 -11 0 -14 -3 -6 -6z"/>
<path d="M5893 2353 c9 -2 23 -2 30 0 6 3 -1 5 -18 5 -16 0 -22 -2 -12 -5z"/>
<path d="M5888 2333 c7 -3 16 -2 19 1 4 3 -2 6 -13 5 -11 0 -14 -3 -6 -6z"/>
<path d="M5853 2313 c9 -2 23 -2 30 0 6 3 -1 5 -18 5 -16 0 -22 -2 -12 -5z"/>
<path d="M5848 2293 c7 -3 16 -2 19 1 4 3 -2 6 -13 5 -11 0 -14 -3 -6 -6z"/>
<path d="M5813 2273 c9 -2 23 -2 30 0 6 3 -1 5 -18 5 -16 0 -22 -2 -12 -5z"/>
<path d="M5808 2253 c7 -3 16 -2 19 1 4 3 -2 6 -13 5 -11 0 -14 -3 -6 -6z"/>
<path d="M5773 2233 c9 -2 23 -2 30 0 6 3 -1 5 -18 5 -16 0 -22 -2 -12 -5z"/>
<path d="M5768 2213 c7 -3 16 -2 19 1 4 3 -2 6 -13 5 -11 0 -14 -3 -6 -6z"/>
<path d="M4568 1013 c7 -3 16 -2 19 1 4 3 -2 6 -13 5 -11 0 -14 -3 -6 -6z"/>
<path d="M4533 993 c9 -2 23 -2 30 0 6 3 -1 5 -18 5 -16 0 -22 -2 -12 -5z"/>
<path d="M4528 973 c7 -3 16 -2 19 1 4 3 -2 6 -13 5 -11 0 -14 -3 -6 -6z"/>
<path d="M4493 953 c9 -2 23 -2 30 0 6 3 -1 5 -18 5 -16 0 -22 -2 -12 -5z"/>
<path d="M4488 933 c7 -3 16 -2 19 1 4 3 -2 6 -13 5 -11 0 -14 -3 -6 -6z"/>
<path d="M4453 913 c9 -2 23 -2 30 0 6 3 -1 5 -18 5 -16 0 -22 -2 -12 -5z"/>
<path d="M4448 893 c7 -3 16 -2 19 1 4 3 -2 6 -13 5 -11 0 -14 -3 -6 -6z"/>
<path d="M4413 873 c9 -2 23 -2 30 0 6 3 -1 5 -18 5 -16 0 -22 -2 -12 -5z"/>
<path d="M4408 853 c7 -3 16 -2 19 1 4 3 -2 6 -13 5 -11 0 -14 -3 -6 -6z"/>
<path d="M4373 833 c9 -2 23 -2 30 0 6 3 -1 5 -18 5 -16 0 -22 -2 -12 -5z"/>
<path d="M4368 813 c7 -3 16 -2 19 1 4 3 -2 6 -13 5 -11 0 -14 -3 -6 -6z"/>
<path d="M4333 793 c9 -2 23 -2 30 0 6 3 -1 5 -18 5 -16 0 -22 -2 -12 -5z"/>
<path d="M4328 773 c7 -3 16 -2 19 1 4 3 -2 6 -13 5 -11 0 -14 -3 -6 -6z"/>
<path d="M4293 753 c9 -2 23 -2 30 0 6 3 -1 5 -18 5 -16 0 -22 -2 -12 -5z"/>
<path d="M4288 733 c7 -3 16 -2 19 1 4 3 -2 6 -13 5 -11 0 -14 -3 -6 -6z"/>
<path d="M4253 713 c9 -2 23 -2 30 0 6 3 -1 5 -18 5 -16 0 -22 -2 -12 -5z"/>
<path d="M4248 693 c7 -3 16 -2 19 1 4 3 -2 6 -13 5 -11 0 -14 -3 -6 -6z"/>
<path d="M4213 673 c9 -2 23 -2 30 0 6 3 -1 5 -18 5 -16 0 -22 -2 -12 -5z"/>
<path d="M4208 653 c7 -3 16 -2 19 1 4 3 -2 6 -13 5 -11 0 -14 -3 -6 -6z"/>
<path d="M4173 633 c9 -2 23 -2 30 0 6 3 -1 5 -18 5 -16 0 -22 -2 -12 -5z"/>
<path d="M4168 613 c7 -3 16 -2 19 1 4 3 -2 6 -13 5 -11 0 -14 -3 -6 -6z"/>
<path d="M4133 593 c9 -2 23 -2 30 0 6 3 -1 5 -18 5 -16 0 -22 -2 -12 -5z"/>
<path d="M4128 573 c7 -3 16 -2 19 1 4 3 -2 6 -13 5 -11 0 -14 -3 -6 -6z"/>
<path d="M4093 553 c9 -2 23 -2 30 0 6 3 -1 5 -18 5 -16 0 -22 -2 -12 -5z"/>
<path d="M4088 533 c7 -3 16 -2 19 1 4 3 -2 6 -13 5 -11 0 -14 -3 -6 -6z"/>
<path d="M4053 513 c9 -2 23 -2 30 0 6 3 -1 5 -18 5 -16 0 -22 -2 -12 -5z"/>
<path d="M4048 493 c7 -3 16 -2 19 1 4 3 -2 6 -13 5 -11 0 -14 -3 -6 -6z"/>
<path d="M4013 473 c9 -2 23 -2 30 0 6 3 -1 5 -18 5 -16 0 -22 -2 -12 -5z"/>
<path d="M4008 453 c7 -3 16 -2 19 1 4 3 -2 6 -13 5 -11 0 -14 -3 -6 -6z"/>
<path d="M3973 433 c9 -2 23 -2 30 0 6 3 -1 5 -18 5 -16 0 -22 -2 -12 -5z"/>
<path d="M3968 413 c7 -3 16 -2 19 1 4 3 -2 6 -13 5 -11 0 -14 -3 -6 -6z"/>
<path d="M3933 393 c9 -2 23 -2 30 0 6 3 -1 5 -18 5 -16 0 -22 -2 -12 -5z"/>
<path d="M3928 373 c7 -3 16 -2 19 1 4 3 -2 6 -13 5 -11 0 -14 -3 -6 -6z"/>
<path d="M3893 353 c9 -2 23 -2 30 0 6 3 -1 5 -18 5 -16 0 -22 -2 -12 -5z"/>
<path d="M3888 333 c7 -3 16 -2 19 1 4 3 -2 6 -13 5 -11 0 -14 -3 -6 -6z"/>
<path d="M3853 313 c9 -2 23 -2 30 0 6 3 -1 5 -18 5 -16 0 -22 -2 -12 -5z"/>
<path d="M3848 293 c7 -3 16 -2 19 1 4 3 -2 6 -13 5 -11 0 -14 -3 -6 -6z"/>
<path d="M3813 273 c9 -2 23 -2 30 0 6 3 -1 5 -18 5 -16 0 -22 -2 -12 -5z"/>
<path d="M3808 253 c7 -3 16 -2 19 1 4 3 -2 6 -13 5 -11 0 -14 -3 -6 -6z"/>
<path d="M3773 233 c9 -2 23 -2 30 0 6 3 -1 5 -18 5 -16 0 -22 -2 -12 -5z"/>
<path d="M3768 213 c7 -3 16 -2 19 1 4 3 -2 6 -13 5 -11 0 -14 -3 -6 -6z"/>
<path d="M3733 193 c9 -2 23 -2 30 0 6 3 -1 5 -18 5 -16 0 -22 -2 -12 -5z"/>
<path d="M3728 173 c7 -3 16 -2 19 1 4 3 -2 6 -13 5 -11 0 -14 -3 -6 -6z"/>
<path d="M3693 153 c9 -2 23 -2 30 0 6 3 -1 5 -18 5 -16 0 -22 -2 -12 -5z"/>
<path d="M3688 133 c7 -3 16 -2 19 1 4 3 -2 6 -13 5 -11 0 -14 -3 -6 -6z"/>
<path d="M3653 113 c9 -2 23 -2 30 0 6 3 -1 5 -18 5 -16 0 -22 -2 -12 -5z"/>
<path d="M3648 93 c7 -3 16 -2 19 1 4 3 -2 6 -13 5 -11 0 -14 -3 -6 -6z"/>
<path d="M3613 73 c9 -2 23 -2 30 0 6 3 -1 5 -18 5 -16 0 -22 -2 -12 -5z"/>
<path d="M3608 53 c7 -3 16 -2 19 1 4 3 -2 6 -13 5 -11 0 -14 -3 -6 -6z"/>
<path d="M3573 33 c9 -2 23 -2 30 0 6 3 -1 5 -18 5 -16 0 -22 -2 -12 -5z"/>
<path d="M3568 13 c7 -3 16 -2 19 1 4 3 -2 6 -13 5 -11 0 -14 -3 -6 -6z"/>
</g>
</svg>
